<svg xmlns="http://www.w3.org/2000/svg" width="36" height="36" viewBox="0 0 36 36">
    <g fill="none" fill-rule="nonzero">
        <circle cx="18" cy="18" r="18" fill="#FFF"/>
        <path fill="#1A1446" d="M25.977 18.153c0 .605 0 1.283-.114 1.766-.48 2.952-2.08 3.581-3.269 3.968-.068.58-.548.992-1.143.992-.617 0-1.143-.532-1.143-1.21 0-.653.503-1.137 1.143-1.137.526 0 .87.387 1.075.702 1.12-.315 2.217-1.476 2.217-2.42v-5.346c1.211 0 1.234 1.524 1.234 2.685zm-2.263 3.049H21.75c-.458 0-.8-.388-.8-.847V16.58c0-.484.365-.847.8-.847h.868v.87h-.846v3.727h1.509v-5.178c.023-2.516-2.629-4.185-5.097-4.185-2.537 0-5.349 1.79-5.349 4.21v5.177h1.509v-3.75h-.846v-.871h.869c.457 0 .8.387.8.847v3.774c0 .484-.366.847-.8.847H12.4a.422.422 0 0 1-.411-.436v-5.613c0-3 3.268-5.08 6.194-5.08 1.44 0 2.903.483 4.023 1.354 1.234.968 1.92 2.275 1.92 3.726v5.613a.422.422 0 0 1-.412.436zm-12.411-5.71v5.347c-1.234 0-1.234-1.5-1.234-2.662 0-1.185 0-2.685 1.234-2.685z"/>
    </g>
</svg>
